<svg width="43" height="37" viewBox="0 0 43 37" fill="none" xmlns="http://www.w3.org/2000/svg">
<path d="M38.6863 3.43501C36.4826 1.23125 33.565 0.0267664 30.4512 0.0267664C27.3374 0.0267664 24.411 1.24017 22.2072 3.44394L21.0562 4.59489L19.8874 3.42609C17.6837 1.22233 14.7483 0 11.6345 0C8.52959 0 5.60314 1.21341 3.4083 3.40825C1.20453 5.61201 -0.00887326 8.53846 4.8855e-05 11.6523C4.8855e-05 14.7661 1.22238 17.6836 3.42614 19.8874L20.1819 36.6431C20.4138 36.8751 20.7261 37 21.0295 37C21.3328 37 21.6451 36.884 21.8771 36.652L38.6685 19.9231C40.8722 17.7193 42.0857 14.7929 42.0857 11.679C42.0946 8.56523 40.8901 5.63878 38.6863 3.43501ZM36.9733 18.219L21.0295 34.1003L5.12134 18.1922C3.37261 16.4435 2.40902 14.1237 2.40902 11.6523C2.40902 9.18085 3.36369 6.8611 5.11242 5.12129C6.85223 3.38148 9.17198 2.41789 11.6345 2.41789C14.1059 2.41789 16.4346 3.38148 18.1833 5.13021L20.1997 7.14661C20.6726 7.61948 21.431 7.61948 21.9038 7.14661L23.9024 5.14806C25.6511 3.39932 27.9798 2.43574 30.4423 2.43574C32.9048 2.43574 35.2246 3.39932 36.9733 5.13914C38.722 6.88787 39.6767 9.20762 39.6767 11.679C39.6856 14.1505 38.722 16.4702 36.9733 18.219Z" fill="black"/>
</svg>
