<svg width="53" height="50" viewBox="0 0 53 50" fill="none" xmlns="http://www.w3.org/2000/svg">
<circle cx="20.407" cy="20" r="20" fill="#5A5A5A"/>
<rect x="22.407" y="27.7782" width="11" height="31" rx="5.5" transform="rotate(-45 22.407 27.7782)" fill="#5A5A5A"/>
<circle cx="20.407" cy="20" r="15" fill="white"/>
<path d="M15.6508 10.4913L15.8364 10.4029L14.9765 8.59715L14.7909 8.68555L15.6508 10.4913ZM10.3261 24.6061C8.02407 19.2346 10.3746 13.0039 15.6508 10.4913L14.7909 8.68555C8.54517 11.6598 5.76279 19.0355 8.48784 25.3939L10.3261 24.6061Z" fill="#5A5A5A"/>
<rect x="15.7295" y="8.20758" width="2.03236" height="2.37758" rx="1.01618" transform="rotate(64.5 15.7295 8.20758)" fill="#5A5A5A"/>
<rect x="10.6641" y="25.5084" width="1.99801" height="2.78327" rx="0.999006" transform="rotate(160 10.6641 25.5084)" fill="#5A5A5A"/>
</svg>
